<mxfile host="app.diagrams.net" modified="2024-07-19T16:07:02.888Z" agent="Mozilla/5.0 (Windows NT 10.0; Win64; x64) AppleWebKit/537.36 (KHTML, like Gecko) Chrome/126.0.0.0 Safari/537.36" version="24.7.2" etag="NsIITgYOy3cdmIMAcAVM" type="github">
  <diagram name="Page-1" id="5FQ7rw9T0grYZ9jscS8I">
    <mxGraphModel>
      <root>
        <mxCell id="0" />
        <mxCell id="1" parent="0" />
      </root>
    </mxGraphModel>
  </diagram>
</mxfile>
